# AST/ASF file generated using VICON BodyLanguage
# -----------------------------------------------
:version 1.10
:name VICON
:units
  mass 1.0
  length 0.45
  angle deg
:documentation
   .ast/.asf automatically generated from VICON data using
   VICON BodyBuilder and BodyLanguage model FoxedUp or BRILLIANT.MOD
:root
   order TX TY TZ RX RY RZ
   axis XYZ
   position 0 0 0  
   orientation 0 0 0 
:bonedata
  begin
     id 1 
     name lhipjoint
     direction 0.690799 -0.707083 0.151096 
     length 2.54797 
     axis 0 0 0  XYZ
  end
  begin
     id 2 
     name lfemur
     direction 0.34202 -0.939693 0  
     length 7.21646  
     axis 0 0 20  XYZ
    dof rx ry rz
    limits (-160.0 20.0)
           (-70.0 70.0)
           (-60.0 70.0)
  end
  begin
     id 3 
     name ltibia
     direction 0.34202 -0.939693 0   
     length 8.16759   
     axis 0 0 20   XYZ
    dof rx
    limits (-10.0 170.0)
  end
  begin
     id 4 
     name lfoot
     direction 0.0487203 -0.133858 0.989802   
     length 1.93375   
     axis -90 7.62852e-016 20   XYZ
    dof rx rz
    limits (-45.0 90.0)
           (-70.0 20.0)
  end
  begin
     id 5 
     name ltoes
     direction 1.53453e-011 -4.21783e-011 1   
     length 0.979747   
     axis -90 7.62852e-016 20   XYZ
    dof rx
    limits (-90.0 20.0)
  end
  begin
     id 6 
     name rhipjoint
     direction -0.694693 -0.703425 0.150315   
     length 2.56122  
     axis 0 0 0  XYZ 
  end
  begin
     id 7 
     name rfemur
     direction -0.34202 -0.939693 0   
     length 7.36786   
     axis 0 0 -20   XYZ
    dof rx ry rz
    limits (-160.0 20.0)
           (-70.0 70.0)
           (-70.0 60.0)
  end
  begin
     id 8 
     name rtibia
     direction -0.34202 -0.939693 0   
     length 8.07288   
     axis 0 0 -20   XYZ
    dof rx
    limits (-10.0 170.0)
 end
 begin
     id 9 
     name rfoot
     direction -0.0428397 -0.117701 0.992125   
     length 1.88295  
     axis -90 -7.62852e-016 -20   XYZ
    dof rx rz
    limits (-45.0 90.0)
           (-20.0 70.0)
  end
  begin
     id 10 
     name rtoes
     direction -1.53456e-011 -4.2187e-011 1   
     length 0.955578   
     axis -90 -7.62852e-016 -20   XYZ
    dof rx
    limits (-90.0 20.0)
  end
  begin
     id 11 
     name lowerback
     direction 0.0288145 0.999398 -0.0193241   
     length 1.92149   
     axis 0 0 0   XYZ
    dof rx ry rz
    limits (-20.0 45.0)
           (-30.0 30.0)
           (-30.0 30.0)
  end
  begin
     id 12 
     name upperback
     direction 0.0233784 0.998099 0.0570278   
     length 1.90435   
     axis 0 0 0   XYZ
    dof rx ry rz
    limits (-20.0 45.0)
           (-30.0 30.0)
           (-30.0 30.0)
  end
  begin
     id 13 
     name thorax
     direction 0.0096694 0.997833 0.0650817   
     length 1.9111   
     axis 0 0 0   XYZ
    dof rx ry rz
    limits (-20.0 45.0)
           (-30.0 30.0)
           (-30.0 30.0)
  end
  begin
     id 14 
     name lowerneck
     direction 0.00516803 0.999916 0.0118722   
     length 1.74664   
     axis 0 0 0   XYZ
    dof rx ry rz
    limits (-20.0 45.0)
           (-30.0 30.0)
           (-30.0 30.0)
  end
  begin
     id 15 
     name upperneck
     direction -0.0510851 0.996117 -0.071696   
     length 1.68498   
     axis 0 0 0   XYZ
    dof rx ry rz
    limits (-20.0 45.0)
           (-30.0 30.0)
           (-30.0 30.0)
  end
  begin
     id 16
     name head
     direction -0.019188 0.999436 -0.0275702  
     length 1.83483  
     axis 0 0 0   XYZ
    dof rx ry rz
    limits (-20.0 45.0)
           (-30.0 30.0)
           (-30.0 30.0)
  end
  begin
     id 17 
     name lclavicle
     direction 0.967006 0.248456 -0.0562957  
     length 3.39395  
     axis 0 0 0   XYZ
    dof ry rz
    limits (-20.0 10.0)
           (0.0 20.0)
  end
  begin
     id 18 
     name lhumerus
     direction 1 -4.48962e-011 -5.62711e-019   
     length 5.24318   
     axis 180 -30 -90   XYZ
    dof rx ry rz
    limits (-60.0 90.0)
           (-90.0 90.0)
           (-90.0 90.0)
  end
  begin
     id 19
     name lradius
     direction 1 -4.48966e-011 7.90625e-027   
     length 2.98999   
     axis 180 -30 -90   XYZ
    dof rx
    limits (-10.0 170.0)
  end
  begin
     id 20
     name lwrist
     direction 1 -4.48959e-011 1.61068e-026   
     length 1.49499   
     axis -9.31229e-015 90 90   XYZ
    dof ry
    limits (-180.0 0.0)
 end
  begin
     id 21 
     name lhand
     direction 1 -4.49017e-011 3.22136e-026   
     length 0.726745   
     axis -2.0555e-014 90 90   XYZ
    dof rx rz
    limits (-90.0 90.0)
           (-45.0 45.0)
  end
  begin
     id 22 
     name lfingers
     direction 1 -4.4898e-011 6.44272e-026   
     length 0.58592   
     axis -4.11101e-014 90 90   XYZ
    dof rx
    limits (0.0 90.0)
  end
  begin
     id 23
     name lthumb
     direction 0.707107 -6.34922e-011 0.707107   
     length 0.841268   
     axis -90 45 2.85299e-015   XYZ
    dof rx rz
    limits (-45.0 45.0)
           (-45.0 45.0)
  end
  begin
     id 24 
     name rclavicle
     direction -0.972232 0.230238 0.0419005   
     length 3.40416  
     axis 0 0 0   XYZ 
    dof ry rz
    limits (-10.0 20.0)
           (-20.0 0.0)
  end
  begin
     id 25 
     name rhumerus
     direction -1 -4.48976e-011 2.48487e-027  
     length 5.37045   
     axis 180 30 90   XYZ
    dof rx ry rz
    limits (-90.0 60.0)
           (-90.0 90.0)
           (-90.0 90.0)
  end
  begin
     id 26 
     name rradius
     direction -1 -4.48942e-011 7.87951e-027   
     length 2.92792   
     axis 180 30 90   XYZ
    dof rx
    limits (-10.0 170.0)
  end
  begin
     id 27 
     name rwrist
     direction -1 -4.48969e-011 1.61068e-026   
     length 1.46396   
     axis -9.31229e-015 -90 -90   XYZ
    dof ry
    limits (-180.0 0.0)
  end
  begin
     id 28
     name rhand
     direction -1 -4.49043e-011 3.22136e-026   
     length 0.784497   
     axis -2.0555e-014 -90 -90   XYZ
    dof rx rz
    limits (-90.0 90.0)
           (-45.0 45.0)
  end
  begin
     id 29
     name rfingers
     direction -1 -4.48823e-011 6.44272e-026   
     length 0.632482   
     axis -4.11101e-014 -90 -90   XYZ
    dof rx
    limits (0.0 90.0)
  end
  begin
     id 30
     name rthumb
     direction -0.707107 -6.34923e-011 0.707107   
     length 0.908121   
     axis -90 -45 -2.85299e-015   XYZ
    dof rx rz
    limits (-45.0 45.0)
           (-45.0 45.0)
  end
:hierarchy
  begin
    root lhipjoint rhipjoint lowerback
    lhipjoint lfemur
    lfemur ltibia
    ltibia lfoot
    lfoot ltoes
    rhipjoint rfemur
    rfemur rtibia
    rtibia rfoot
    rfoot rtoes
    lowerback upperback
    upperback thorax
    thorax lowerneck lclavicle rclavicle
    lowerneck upperneck
    upperneck head
    lclavicle lhumerus
    lhumerus lradius
    lradius lwrist
    lwrist lhand lthumb
    lhand lfingers
    rclavicle rhumerus
    rhumerus rradius
    rradius rwrist
    rwrist rhand rthumb
    rhand rfingers
  end

#!OML:ASF E:\Style6\Style6.ASF
:FULLY-SPECIFIED
:DEGREES
924
root 0.405736 15.662 0.287021 14.5436 -0.239988 -4.0043
lowerback 6.72289 -0.661498 2.5889
upperback -6.3762 -0.157612 4.60467
thorax -10.6204 -0.0593329 3.53178
lowerneck -7.31605 9.08625 9.66861
upperneck 26.6238 12.8928 -6.253
head 10.8144 6.24613 -2.29408
rclavicle -1.34677e-014 2.38542e-015
rhumerus -0.0107027 -34.2491 20.4976
rradius 56.7582
rwrist 29.614
rhand 26.1886 0.44307
rfingers 7.12502
rthumb 50.2501 -20.6474
lclavicle -1.34677e-014 2.38542e-015
lhumerus -88.736 -60.2845 106.779
lradius 73.7496
lwrist 24.6854
lhand 7.33213 9.10438
lfingers 7.12502
lthumb 32.5918 36.1898
rfemur -48.7626 -21.1905 27.6968
rtibia 67.4387
rfoot -23.9313 14.3175
rtoes 5.10857
lfemur -50.7247 15.7085 -17.4676
ltibia 71.0729
lfoot -29.1964 -5.09781
ltoes -19.1176
925
root 0.404181 15.6597 0.290839 14.5812 -0.193241 -3.99019
lowerback 6.66184 -0.667596 2.5515
upperback -6.47768 -0.172277 4.56263
thorax -10.6964 -0.064944 3.51215
lowerneck -6.98776 8.98843 9.59281
upperneck 26.5223 12.7692 -6.19336
head 10.6901 6.19956 -2.29538
rclavicle 7.90169e-015 7.95139e-015
rhumerus -0.0462978 -34.0917 20.5623
rradius 56.7295
rwrist 29.7209
rhand 26.1334 0.484633
rfingers 7.12502
rthumb 50.1996 -20.6327
lclavicle 7.90169e-015 7.95139e-015
lhumerus -89.3341 -60.0542 107.702
lradius 74.7224
lwrist 25.235
lhand 7.39842 8.96966
lfingers 7.12502
lthumb 32.6549 36.0421
rfemur -48.7794 -21.2053 27.703
rtibia 67.4204
rfoot -23.9925 14.3074
rtoes 5.33979
lfemur -50.6879 15.6539 -17.4575
ltibia 71.0274
lfoot -29.2431 -5.02782
ltoes -19.6872
926
root 0.401513 15.6592 0.293741 14.5618 -0.147014 -3.99669
lowerback 6.61163 -0.702633 2.47502
upperback -6.42635 -0.234244 4.56278
thorax -10.6049 -0.0898178 3.56134
lowerneck -7.07135 8.97939 9.49781
upperneck 26.5034 12.7529 -6.15558
head 10.6875 6.18424 -2.26557
rclavicle 1.29707e-014 -1.82882e-014
rhumerus -0.0193161 -34.1674 20.4957
rradius 56.6625
rwrist 30.2006
rhand 25.741 0.621235
rfingers 7.12502
rthumb 49.8406 -20.6848
lclavicle 1.29707e-014 -1.82882e-014
lhumerus -89.4359 -59.8343 108.174
lradius 75.6726
lwrist 25.7634
lhand 7.39976 8.61514
lfingers 7.12502
lthumb 32.6561 35.6873
rfemur -48.7295 -21.1938 27.7049
rtibia 67.4088
rfoot -24.0631 14.258
rtoes 5.34639
lfemur -50.5727 15.6079 -17.4083
ltibia 70.9596
lfoot -29.2894 -4.89923
ltoes -20.4207
927
root 0.399015 15.6627 0.295647 14.543 -0.160525 -3.95396
lowerback 6.6004 -0.743642 2.32098
upperback -6.35951 -0.312929 4.55178
thorax -10.518 -0.117598 3.6451
lowerneck -7.24895 9.00911 9.52092
upperneck 26.532 12.7913 -6.20427
head 10.7417 6.19266 -2.27228
rclavicle 1.85367e-014 -7.31528e-014
rhumerus 0.0639772 -34.3264 20.3587
rradius 56.6239
rwrist 30.4588
rhand 25.576 0.661978
rfingers 7.12502
rthumb 49.6895 -20.7223
lclavicle 1.85367e-014 -7.31528e-014
lhumerus -89.352 -59.5833 108.427
lradius 76.6362
lwrist 26.1466
lhand 7.28571 8.39127
lfingers 7.12502
lthumb 32.5476 35.4859
rfemur -48.6893 -21.149 27.6458
rtibia 67.3915
rfoot -24.038 14.2956
rtoes 5.7961
lfemur -50.5139 15.6015 -17.4451
ltibia 70.9022
lfoot -29.2615 -4.92192
ltoes -20.2866
928
root 0.39667 15.665 0.297857 14.5321 -0.181643 -3.92005
lowerback 6.63835 -0.743108 2.18819
upperback -6.37573 -0.326634 4.53227
thorax -10.5571 -0.114714 3.70279
lowerneck -7.26573 8.99547 9.57994
upperneck 26.5755 12.7774 -6.25385
head 10.7682 6.1857 -2.30013
rclavicle 2.44505e-014 -3.26007e-014
rhumerus 0.0532604 -34.1687 20.3475
rradius 56.6999
rwrist 30.263
rhand 25.6291 0.651078
rfingers 7.12502
rthumb 49.7381 -20.7081
lclavicle 2.44505e-014 -3.26007e-014
lhumerus -89.5184 -59.3773 108.97
lradius 77.5749
lwrist 26.4653
lhand 7.12844 8.38588
lfingers 7.12502
lthumb 32.3979 35.5112
rfemur -48.6513 -21.0989 27.5899
rtibia 67.3625
rfoot -23.9739 14.3623
rtoes 6.40183
lfemur -50.4521 15.6249 -17.48
ltibia 70.8468
lfoot -29.2608 -4.85214
ltoes -20.4607
929
root 0.395827 15.6678 0.299538 14.5285 -0.183209 -3.95392
lowerback 6.69314 -0.718272 2.16364
upperback -6.39378 -0.292603 4.52616
thorax -10.6119 -0.0960608 3.70718
lowerneck -7.37337 8.9621 9.6044
upperneck 26.6771 12.736 -6.29329
head 10.8281 6.16098 -2.31832
rclavicle -1.81888e-014 3.57812e-014
rhumerus 0.0564302 -34.1092 20.3701
rradius 56.6994
rwrist 30.0767
rhand 25.7553 0.433461
rfingers 7.12502
rthumb 49.8537 -20.8657
lclavicle -1.81888e-014 3.57812e-014
lhumerus -89.6842 -59.2331 109.546
lradius 78.5318
lwrist 26.8039
lhand 7.14014 8.39935
lfingers 7.12502
lthumb 32.4091 35.5224
rfemur -48.6064 -21.0533 27.6174
rtibia 67.3065
rfoot -23.9875 14.3407
rtoes 6.30455
lfemur -50.4223 15.6472 -17.4398
ltibia 70.8084
lfoot -29.2476 -4.78456
ltoes -20.6909
930
root 0.39557 15.6721 0.300552 14.5527 -0.159841 -4.01594
lowerback 6.72025 -0.691454 2.19072
upperback -6.39584 -0.252456 4.51587
thorax -10.6327 -0.0789308 3.67529
lowerneck -7.62041 8.90532 9.57433
upperneck 26.8156 12.6478 -6.28364
head 10.917 6.11028 -2.31053
rclavicle 5.46658e-015 9.54166e-015
rhumerus -0.00628192 -34.2874 20.4419
rradius 56.6767
rwrist 29.7244
rhand 25.9401 -0.0293902
rfingers 7.12502
rthumb 50.0228 -21.2401
lclavicle 5.46658e-015 9.54166e-015
lhumerus -89.7838 -59.1916 110.053
lradius 79.4979
lwrist 27.1333
lhand 7.18774 8.3534
lfingers 7.12502
lthumb 32.4544 35.4672
rfemur -48.5886 -21.0021 27.6864
rtibia 67.234
rfoot -23.965 14.2697
rtoes 6.20527
lfemur -50.45 15.6562 -17.3759
ltibia 70.7843
lfoot -29.2549 -4.69867
ltoes -21.1135
931
root 0.394816 15.6773 0.304132 14.5566 -0.128728 -4.09086
lowerback 6.72504 -0.704486 2.22698
upperback -6.41995 -0.265245 4.50699
thorax -10.6623 -0.0880339 3.64841
lowerneck -7.6672 8.84902 9.49101
upperneck 26.876 12.5539 -6.1828
head 10.9262 6.06806 -2.27257
rclavicle 1.34677e-014 -4.53229e-014
rhumerus -0.0474999 -34.2874 20.44
rradius 56.7219
rwrist 29.3941
rhand 26.0094 -0.220972
rfingers 7.12502
rthumb 50.0863 -21.3983
lclavicle 1.34677e-014 -4.53229e-014
lhumerus -89.9979 -59.062 110.593
lradius 80.3827
lwrist 27.3507
lhand 7.16665 8.30075
lfingers 7.12502
lthumb 32.4343 35.4186
rfemur -48.5113 -20.9674 27.7617
rtibia 67.1396
rfoot -23.9394 14.249
rtoes 6.30994
lfemur -50.4405 15.6673 -17.2863
ltibia 70.7634
lfoot -29.2419 -4.84328
ltoes -20.6669
932
root 0.394724 15.6796 0.306773 14.5429 -0.103329 -4.2557
lowerback 6.79989 -0.709029 2.36879
upperback -6.48024 -0.247581 4.50687
thorax -10.7775 -0.0893705 3.57051
lowerneck -7.65584 8.77192 9.47601
upperneck 26.9929 12.4379 -6.11968
head 10.9515 6.01971 -2.26455
rclavicle -5.46658e-016 7.95139e-015
rhumerus -0.0854543 -34.1339 20.435
rradius 56.7464
rwrist 29.3813
rhand 25.9127 -0.14566
rfingers 7.12502
rthumb 49.9978 -21.3696
lclavicle -5.46658e-016 7.95139e-015
lhumerus -90.3022 -58.9054 111.196
lradius 81.2085
lwrist 27.5017
lhand 7.09408 8.32636
lfingers 7.12502
lthumb 32.3652 35.4584
rfemur -48.4102 -20.9213 27.9268
rtibia 67.048
rfoot -23.9701 14.2344
rtoes 6.2197
lfemur -50.4162 15.711 -17.0867
ltibia 70.7522
lfoot -29.2095 -5.04779
ltoes -20.0073
933
root 0.39605 15.6842 0.309604 14.5035 -0.0925449 -4.33289
lowerback 6.8546 -0.714185 2.43201
upperback -6.4948 -0.243971 4.49974
thorax -10.8277 -0.0924676 3.52884
lowerneck -7.67261 8.70035 9.50048
upperneck 27.0667 12.3453 -6.15712
head 10.9783 5.97465 -2.2943
rclavicle -1.72446e-014 4.69132e-014
rhumerus -0.0308147 -34.1853 20.4035
rradius 56.6783
rwrist 29.5807
rhand 26.0064 0.0234405
rfingers 7.12502
rthumb 50.0835 -21.1553
lclavicle -1.72446e-014 4.69132e-014
lhumerus -90.4133 -58.7201 111.61
lradius 82.0032
lwrist 27.5953
lhand 7.11392 8.33619
lfingers 7.12502
lthumb 32.3841 35.4643
rfemur -48.2933 -20.9137 27.9903
rtibia 66.9504
rfoot -23.98 14.0666
rtoes 5.53247
lfemur -50.3428 15.7249 -16.9857
ltibia 70.7151
lfoot -29.1803 -5.13359
ltoes -19.9521
934
root 0.397538 15.6883 0.312177 14.4891 -0.0819031 -4.31333
lowerback 6.80125 -0.728218 2.41492
upperback -6.46733 -0.272113 4.47143
thorax -10.7628 -0.106686 3.50926
lowerneck -7.66259 8.63572 9.52612
upperneck 27.0247 12.2599 -6.2119
head 10.9579 5.93274 -2.33104
rclavicle 1.25234e-014 -5.56597e-014
rhumerus 0.036614 -34.1998 20.3336
rradius 56.6168
rwrist 29.7172
rhand 25.9171 0.193688
rfingers 7.12502
rthumb 50.0018 -21.0281
lclavicle 1.25234e-014 -5.56597e-014
lhumerus -90.3289 -58.5566 111.891
lradius 82.624
lwrist 27.7081
lhand 7.27867 8.27475
lfingers 7.12502
lthumb 32.5409 35.3707
rfemur -48.2343 -20.9419 27.9604
rtibia 66.8698
rfoot -23.9361 13.9922
rtoes 5.2748
lfemur -50.2866 15.7275 -17.0025
ltibia 70.6731
lfoot -29.1626 -5.30277
ltoes -19.7009
935
root 0.398245 15.6987 0.315503 14.4815 -0.0896834 -4.25903
lowerback 6.72949 -0.724997 2.35126
upperback -6.42409 -0.28496 4.43378
thorax -10.6692 -0.110591 3.50207
lowerneck -7.72554 8.56453 9.4739
upperneck 27.0002 12.1534 -6.19194
head 10.9453 5.87936 -2.32823
rclavicle -1.91827e-014 6.99722e-014
rhumerus 0.0268633 -34.1758 20.3165
rradius 56.5925
rwrist 29.8565
rhand 25.8786 0.358471
rfingers 7.12502
rthumb 49.9665 -20.8818
lclavicle -1.91827e-014 6.99722e-014
lhumerus -90.2553 -58.474 112.231
lradius 83.1503
lwrist 27.9784
lhand 7.34969 8.18844
lfingers 7.12502
lthumb 32.6085 35.2704
rfemur -48.1669 -20.9467 27.8851
rtibia 66.7917
rfoot -23.8854 14.0843
rtoes 5.59608
lfemur -50.2632 15.7532 -17.0768
ltibia 70.6245
lfoot -29.1122 -5.48177
ltoes -18.8401
